<svg width="847" height="790" viewBox="0 0 847 790" fill="none" xmlns="http://www.w3.org/2000/svg">
<path d="M828.685 665.361L525.498 766.917L527.775 557.138L828.685 665.361Z" fill="#D9D9D9" fill-opacity="0.2"/>
<path d="M768.635 92.6514L600.045 168.901L601.741 12.6993L768.635 92.6514Z" fill="#D9D9D9" fill-opacity="0.2"/>
<path d="M845.701 210.95L656.812 286.976L658.507 130.774L845.701 210.95Z" fill="#D9D9D9" fill-opacity="0.2"/>
<path d="M619.64 93.9603L430.046 169.978L431.742 13.7765L619.64 93.9603Z" fill="#D9D9D9" fill-opacity="0.2"/>
<path d="M537.947 161.719L355.618 241.166L357.386 78.2676L537.947 161.719Z" fill="#D9D9D9" fill-opacity="0.2"/>
<path d="M775.363 307.071L552.115 427.553L554.784 181.693L775.363 307.071Z" fill="#D9D9D9" fill-opacity="0.2"/>
<path d="M595.02 306.857L461.223 383.491L462.919 227.289L595.02 306.857Z" fill="#D9D9D9" fill-opacity="0.2"/>
<path d="M414.957 280.864L132.252 423.017L135.405 132.505L414.957 280.864Z" fill="#D9D9D9" fill-opacity="0.2"/>
<path d="M544.502 545.662L373.647 626.044L375.432 461.529L544.502 545.662Z" fill="#D9D9D9" fill-opacity="0.2"/>
<path d="M594.62 491.922L423.764 572.304L425.55 407.789L594.62 491.922Z" fill="#D9D9D9" fill-opacity="0.2"/>
<path d="M264.345 280.486L93.4895 360.868L95.2752 196.353L264.345 280.486Z" fill="#D9D9D9" fill-opacity="0.2"/>
<path d="M396.029 519.512L98.8176 646.736L101.65 385.76L396.029 519.512Z" fill="#D9D9D9" fill-opacity="0.2"/>
<path d="M482.467 688.041L269.899 774.005L271.815 597.407L482.467 688.041Z" fill="#D9D9D9" fill-opacity="0.2"/>
</svg>
